<svg xmlns="http://www.w3.org/2000/svg" xmlns:xlink="http://www.w3.org/1999/xlink" version="1.1" x="0px" y="0px" viewBox="0 0 32 32" style="enable-background:new 0 0 32 32;" xml:space="preserve"><g><path d="M29.505,26.049H2.495C1.119,26.049,0,24.93,0,23.554V2.544c0-1.376,1.119-2.495,2.495-2.495h27.01   C30.881,0.049,32,1.168,32,2.544v21.009C32,24.93,30.881,26.049,29.505,26.049z M2.495,2.049C2.222,2.049,2,2.271,2,2.544v21.009   c0,0.273,0.222,0.495,0.495,0.495h27.01c0.273,0,0.495-0.222,0.495-0.495V2.544c0-0.273-0.222-0.495-0.495-0.495H2.495z"/><path d="M31,20H1c-0.552,0-1-0.447-1-1s0.448-1,1-1h30c0.553,0,1,0.447,1,1S31.553,20,31,20z"/><path d="M16,23c-0.26,0-0.52-0.11-0.71-0.29C15.11,22.52,15,22.26,15,22s0.11-0.521,0.29-0.71c0.38-0.37,1.05-0.37,1.42,0   C16.89,21.479,17,21.74,17,22s-0.11,0.52-0.29,0.71C16.52,22.89,16.27,23,16,23z"/><path d="M22.5,32h-13C8.122,32,7,30.879,7,29.5S8.122,27,9.5,27h1.28l0.24-1.196c0.108-0.542,0.63-0.896,1.177-0.784   c0.542,0.108,0.893,0.635,0.784,1.177l-0.4,2C12.487,28.664,12.076,29,11.6,29H9.5C9.229,29,9,29.229,9,29.5S9.229,30,9.5,30h13   c0.271,0,0.5-0.229,0.5-0.5S22.771,29,22.5,29h-2.1c-0.477,0-0.887-0.336-0.98-0.804l-0.4-2c-0.108-0.542,0.242-1.068,0.784-1.177   c0.54-0.112,1.069,0.241,1.177,0.784L21.22,27h1.28c1.379,0,2.5,1.121,2.5,2.5S23.879,32,22.5,32z"/></g></svg>
