<svg xmlns="http://www.w3.org/2000/svg" viewBox="0 0 32 32" enable-background="new 0 0 32 32" x="0px" y="0px"><g><path d="M16 21c-2.757 0-5-2.243-5-5s2.243-5 5-5 5 2.243 5 5-2.243 5-5 5zm0-8c-1.654 0-3 1.346-3 3s1.346 3 3 3 3-1.346 3-3-1.346-3-3-3zM4 26c-2.206 0-4-1.794-4-4s1.794-4 4-4 4 1.794 4 4-1.794 4-4 4zm0-6c-1.103 0-2 .897-2 2s.897 2 2 2 2-.897 2-2-.897-2-2-2zM28 27c-2.206 0-4-1.794-4-4s1.794-4 4-4 4 1.794 4 4-1.794 4-4 4zm0-6c-1.103 0-2 .897-2 2s.897 2 2 2 2-.897 2-2-.897-2-2-2zM18 32c-2.206 0-4-1.794-4-4s1.794-4 4-4 4 1.794 4 4-1.794 4-4 4zm0-6c-1.103 0-2 .897-2 2s.897 2 2 2 2-.897 2-2-.897-2-2-2zM24 8c-2.206 0-4-1.794-4-4s1.794-4 4-4 4 1.794 4 4-1.794 4-4 4zm0-6c-1.103 0-2 .897-2 2s.897 2 2 2 2-.897 2-2-.897-2-2-2zM6 11c-2.206 0-4-1.794-4-4s1.794-4 4-4 4 1.794 4 4-1.794 4-4 4zm0-6c-1.103 0-2 .897-2 2s.897 2 2 2 2-.897 2-2-.897-2-2-2zM17.499 26c-.48 0-.904-.347-.985-.836l-.837-5.021c-.091-.544.277-1.06.822-1.15.549-.095 1.061.278 1.151.822l.837 5.021c.091.544-.277 1.06-.822 1.15l-.166.014zM6.706 21.647c-.367 0-.72-.202-.896-.553-.247-.493-.046-1.094.448-1.341l5.718-2.859c.495-.247 1.095-.046 1.342.447.247.494.047 1.095-.447 1.342l-5.718 2.859c-.144.071-.297.105-.447.105zM12.83 14.147c-.238 0-.478-.084-.668-.257l-4.45-4.004c-.41-.369-.443-1.001-.074-1.412.369-.41 1.002-.445 1.412-.074l4.449 4.004c.411.369.444 1.001.074 1.412-.197.219-.469.331-.743.331zM18.457 13.459c-.188 0-.378-.053-.547-.164-.462-.303-.591-.922-.289-1.384l3.899-5.951c.304-.461.923-.591 1.385-.289.462.303.591.922.289 1.384l-3.898 5.951c-.193.294-.513.453-.839.453zM25.396 22.515c-.168 0-.338-.042-.495-.132l-5.992-3.42c-.479-.273-.646-.884-.372-1.364.273-.479.881-.649 1.364-.372l5.992 3.42c.479.273.646.884.372 1.364-.185.323-.522.504-.869.504z"/></g></svg>
