<svg xmlns="http://www.w3.org/2000/svg" xmlns:xlink="http://www.w3.org/1999/xlink" version="1.1" x="0px" y="0px" viewBox="0 0 32 32" style="enable-background:new 0 0 32 32;" xml:space="preserve"><g><path d="M31,32H1c-0.552,0-1-0.447-1-1c0-8.07,7.178-14.637,16-14.637S32,22.93,32,31C32,31.553,31.553,32,31,32z M2.043,30h27.914   C29.391,23.498,23.347,18.363,16,18.363C8.653,18.363,2.61,23.498,2.043,30z"/><path d="M16,18.363c-5.063,0-9.182-4.119-9.182-9.182S10.937,0,16,0c5.062,0,9.182,4.119,9.182,9.182S21.062,18.363,16,18.363z    M16,2c-3.96,0-7.182,3.222-7.182,7.182S12.04,16.363,16,16.363s7.182-3.222,7.182-7.182S19.96,2,16,2z"/></g></svg>
